<?xml version="1.0" standalone="no"?>
<!DOCTYPE svg PUBLIC "-//W3C//DTD SVG 20010904//EN"
 "http://www.w3.org/TR/2001/REC-SVG-20010904/DTD/svg10.dtd">
<svg version="1.0" xmlns="http://www.w3.org/2000/svg"
 width="256.000000pt" height="256.000000pt" viewBox="0 0 256.000000 256.000000"
 preserveAspectRatio="xMidYMid meet">

<g transform="translate(0.000000,256.000000) scale(0.100000,-0.100000)"
fill="#000000" stroke="none">
<path d="M1049 2303 c-13 -21 -43 -51 -66 -68 -23 -16 -42 -32 -42 -35 0 -3
19 -19 42 -35 23 -17 52 -46 65 -65 13 -19 26 -36 30 -37 4 -1 19 17 34 40 14
23 45 53 67 67 22 14 40 27 40 30 0 3 -18 16 -40 30 -22 14 -53 44 -67 67 -15
23 -30 42 -33 43 -3 0 -17 -17 -30 -37z"/>
<path d="M416 2152 c-3 -5 57 -95 132 -200 244 -339 356 -541 491 -877 51
-125 90 -209 108 -227 49 -52 100 -72 178 -72 61 0 81 5 155 40 l85 40 -65 22
c-36 12 -94 39 -129 60 -126 74 -162 121 -520 676 -184 284 -343 523 -355 531
-22 16 -72 20 -80 7z"/>
<path d="M293 1963 c-91 -194 -113 -255 -113 -317 0 -63 21 -132 57 -189 49
-78 91 -173 107 -244 13 -57 16 -130 16 -342 l0 -271 40 0 40 0 0 348 c0 355
2 372 38 372 42 0 225 -198 337 -365 76 -114 171 -302 221 -437 l28 -77 85 -7
c48 -5 223 -8 391 -9 245 0 328 4 424 18 177 27 292 52 320 71 33 21 43 73 22
114 -15 29 -29 35 -174 81 -313 99 -397 124 -408 124 -7 0 -81 -31 -166 -69
-148 -67 -155 -69 -233 -69 -104 1 -167 27 -233 100 -41 45 -59 78 -117 226
-79 202 -197 441 -286 584 -65 103 -327 475 -336 475 -2 0 -29 -53 -60 -117z
m67 -192 c7 -14 6 -29 -5 -55 -20 -48 -19 -78 6 -137 24 -55 16 -79 -25 -79
-43 0 -86 116 -72 192 15 78 71 125 96 79z m1714 -1153 c35 -56 -75 -89 -298
-92 -141 -1 -160 1 -170 17 -8 12 -8 22 0 35 9 14 34 18 165 24 89 4 175 13
204 21 61 19 85 17 99 -5z"/>
<path d="M1473 1796 c-12 -19 -36 -42 -53 -52 -36 -22 -37 -28 -5 -42 14 -6
37 -29 52 -51 16 -22 30 -40 33 -40 3 0 14 14 25 32 11 17 35 41 52 52 18 11
32 22 32 25 1 3 -15 15 -33 27 -19 12 -42 36 -52 53 -10 16 -21 30 -24 30 -3
0 -15 -16 -27 -34z"/>
<path d="M360 480 l0 -40 40 0 40 0 0 40 0 40 -40 0 -40 0 0 -40z"/>
</g>
</svg>
